<svg height="512" viewBox="0 0 512 512" width="512" xmlns="http://www.w3.org/2000/svg"><g><g fill="#57a4ff"><path d="m216 48-8-32h96l-8 32z"/><path d="m304 16-8 32h-80l-8-32z"/><path d="m472 136v288h-432v-288h24v264q96-32 192 0 96-32 192 0v-264z"/></g><g fill="#004fac"><path d="m232 480h48a8 8 0 0 0 0-16h-48a8 8 0 0 0 0 16z"/><path d="m472 128h-16v-16a8 8 0 0 0 -5.47-7.59 320.913 320.913 0 0 0 -50.53-12.46v-55.95a28.031 28.031 0 0 0 -28-28h-232a28.031 28.031 0 0 0 -28 28v55.95a320.913 320.913 0 0 0 -50.53 12.46 8 8 0 0 0 -5.47 7.59v16h-16a8 8 0 0 0 -8 8v288a8 8 0 0 0 8 8h72v44a28.031 28.031 0 0 0 28 28h232a28.031 28.031 0 0 0 28-28v-44h72a8 8 0 0 0 8-8v-288a8 8 0 0 0 -8-8zm-32-10.18v271.27c-58.45-17.36-117.55-17.35-176 .01v-269.1a8.044 8.044 0 0 0 -.28-2.09c58.51-18.4 117.76-18.43 176.28-.09zm-146.25-93.82-4 16h-67.5l-4-16zm-165.75 12a12.01 12.01 0 0 1 12-12h61.75l6.49 25.94a8 8 0 0 0 7.76 6.06h80a8 8 0 0 0 7.76-6.06l6.49-25.94h61.75a12.01 12.01 0 0 1 12 12v53.79c-42.71-4.59-85.54.01-128 13.79-42.46-13.78-85.29-18.38-128-13.79zm-56 81.82c58.52-18.34 117.77-18.31 176.28.09a8.044 8.044 0 0 0 -.28 2.09v269.11a303.675 303.675 0 0 0 -176-.02zm312 358.18a12.01 12.01 0 0 1 -12 12h-232a12.01 12.01 0 0 1 -12-12v-44h256zm80-60h-416v-272h8v256a8 8 0 0 0 10.53 7.59c62.02-20.67 124.92-20.67 186.94 0a7.965 7.965 0 0 0 5.06 0c62.02-20.67 124.92-20.67 186.94 0a7.884 7.884 0 0 0 2.53.41 8 8 0 0 0 8-8v-256h8z"/></g></g></svg>