<svg height="512" viewBox="0 0 512 512" width="512" xmlns="http://www.w3.org/2000/svg"><g><path d="m496 148v232a19.994 19.994 0 0 1 -20 20h-12v64l-64-64h-236a19.994 19.994 0 0 1 -20-20v-60h236a19.994 19.994 0 0 0 20-20v-172h76a19.994 19.994 0 0 1 20 20z" fill="#57a4ff"/><g fill="#004fac"><path d="m476 120h-68v-52a28.031 28.031 0 0 0 -28-28h-344a28.031 28.031 0 0 0 -28 28v232a28.031 28.031 0 0 0 28 28h4v56a8 8 0 0 0 13.66 5.66l61.65-61.66h20.69v52a28.031 28.031 0 0 0 28 28h232.69l61.65 61.66a8 8 0 0 0 13.66-5.66v-56h4a28.031 28.031 0 0 0 28-28v-232a28.031 28.031 0 0 0 -28-28zm-364 192a8.008 8.008 0 0 0 -5.66 2.34l-50.34 50.35v-44.69a8 8 0 0 0 -8-8h-12a12.01 12.01 0 0 1 -12-12v-232a12.01 12.01 0 0 1 12-12h344a12.01 12.01 0 0 1 12 12v232a12.01 12.01 0 0 1 -12 12zm376 68a12.01 12.01 0 0 1 -12 12h-12a8 8 0 0 0 -8 8v44.69l-50.34-50.35a8.008 8.008 0 0 0 -5.66-2.34h-236a12.01 12.01 0 0 1 -12-12v-52h228a28.031 28.031 0 0 0 28-28v-164h68a12.01 12.01 0 0 1 12 12z"/><path d="m56 184h304a8 8 0 0 0 0-16h-304a8 8 0 0 0 0 16z"/><path d="m56 152h304a8 8 0 0 0 0-16h-304a8 8 0 0 0 0 16z"/><path d="m56 216h304a8 8 0 0 0 0-16h-304a8 8 0 0 0 0 16z"/><path d="m56 120h304a8 8 0 0 0 0-16h-304a8 8 0 0 0 0 16z"/><path d="m368 240a8 8 0 0 0 -8-8h-304a8 8 0 0 0 0 16h304a8 8 0 0 0 8-8z"/></g></g></svg>