<svg id="Capa_1" enable-background="new 0 0 512 512" height="512" viewBox="0 0 512 512" width="512" xmlns="http://www.w3.org/2000/svg"><g><g><path d="m111.095 150.995h30.005v60.01h-30.005z" fill="#f3f5f9" transform="matrix(.5 -.866 .866 .5 -93.7 199.724)"/></g><g><path d="m370.9 300.995h30.005v60.01h-30.005z" fill="#e1e6f0" transform="matrix(.5 -.866 .866 .5 -93.688 499.746)"/></g><g><path d="m96.093 315.998h60.01v30.005h-60.01z" fill="#f3f5f9" transform="matrix(.866 -.5 .5 .866 -148.585 107.369)"/></g><g><path d="m355.898 165.998h60.01v30.005h-60.01z" fill="#e1e6f0" transform="matrix(.866 -.5 .5 .866 -38.802 217.161)"/></g><g><path d="m241 75h30v61h-30z" fill="#f3f5f9"/></g><g><path d="m241 376h30v61h-30z" fill="#f3f5f9"/></g><g><path d="m222.514 464.993-129.888-76 15-25.986 129.888 76z" fill="#f3f5f9"/></g><g><path d="m289.53 465.828-14.355-26.338 132.099-72.894 14.356 26.338z" fill="#e1e6f0"/></g><g><path d="m421 181h30v150.059h-30z" fill="#e1e6f0"/></g><g><path d="m404.374 148.993-129.888-76 15-25.986 129.888 76z" fill="#e1e6f0"/></g><g><path d="m107.626 148.993-15-25.986 129.888-76 15 25.986z" fill="#f3f5f9"/></g><g><path d="m61 181h30v150.059h-30z" fill="#f3f5f9"/></g><g id="Community_manager_1_"><g><path d="m51.64 189.979c-21.475-12.407-28.872-39.976-16.479-61.465 12.407-21.489 39.961-28.901 61.465-16.494h.029c21.475 12.422 28.857 40.005 16.45 61.479-12.506 21.657-40.061 28.834-61.465 16.48z" fill="#6cf"/></g><g><path d="m415.375 399.979c-21.504-12.422-28.887-40.005-16.479-61.479 12.325-21.343 39.723-29.022 61.465-16.479 21.475 12.407 28.872 39.976 16.479 61.465-12.432 21.52-40.015 28.865-61.465 16.493z" fill="#59abff"/></g><g><path d="m35.16 383.5c-12.393-21.504-4.995-49.072 16.479-61.479 21.416-12.385 48.987-5.145 61.465 16.494 12.407 21.46 5.024 49.043-16.45 61.465-21.352 12.289-48.974 5.171-61.494-16.48z" fill="#6cf"/></g><g><path d="m398.896 173.485c-12.407-21.46-5.024-49.043 16.45-61.465h.029c21.46-12.422 49.043-4.995 61.465 16.479 12.393 21.504 4.995 49.072-16.479 61.479-21.627 12.484-49.092 4.965-61.465-16.493z" fill="#59abff"/></g></g><path d="m256 75h15v61h-15z" fill="#e1e6f0"/><path d="m256 376h15v61h-15z" fill="#e1e6f0"/><g><path d="m256 90c-24.814 0-45-20.186-45-45s20.186-45 45-45 45 20.186 45 45-20.186 45-45 45z" fill="#6cf"/></g><g><path d="m256 512c-24.814 0-45-20.186-45-45s20.186-45 45-45 45 20.186 45 45-20.186 45-45 45z" fill="#6cf"/></g><path d="m301 467c0-24.814-20.186-45-45-45v90c24.814 0 45-20.186 45-45z" fill="#59abff"/><path d="m301 45c0-24.814-20.186-45-45-45v90c24.814 0 45-20.186 45-45z" fill="#59abff"/><g><path d="m391 256c0 52.8-30.601 98.699-75 120.899l-60-30.899-60 30.899c-44.399-22.2-75-68.099-75-120.899 0-74.401 60.601-135 135-135s135 60.599 135 135z" fill="#59abff"/></g><path d="m316 376.899c44.399-22.2 75-68.099 75-120.899 0-74.401-60.601-135-135-135v225z" fill="#4d87ff"/><g><path d="m256 271c-24.814 0-45-20.186-45-45s20.186-45 45-45 45 20.186 45 45-20.186 45-45 45z" fill="#f3f5f9"/></g><path d="m256 286c-32.999 0-60 26.999-60 60v30.899c17.999 9 38.401 14.101 60 14.101s42.001-5.101 60-14.101v-30.899c0-33.001-27.001-60-60-60z" fill="#f3f5f9"/><g fill="#e1e6f0"><path d="m316 376.899v-30.899c0-33.001-27.001-60-60-60v105c21.599 0 42.001-5.101 60-14.101z"/><path d="m301 226c0-24.814-20.186-45-45-45v90c24.814 0 45-20.186 45-45z"/></g></g></svg>