<svg height="496pt" viewBox="-48 0 496 496" width="496pt" xmlns="http://www.w3.org/2000/svg"><path d="m264.199219 392c0-35.347656 28.65625-64 64-64v-320h-247.917969l-.082031.078125v71.921875h-72v408h320v-32c-35.34375 0-64-28.652344-64-64zm16-80" fill="#57a4ff"/><g fill="#004fac"><path d="m56.199219 192h224c4.417969 0 8-3.582031 8-8s-3.582031-8-8-8h-224c-4.417969 0-8 3.582031-8 8s3.582031 8 8 8zm0 0"/><path d="m56.199219 224h224c4.417969 0 8-3.582031 8-8s-3.582031-8-8-8h-224c-4.417969 0-8 3.582031-8 8s3.582031 8 8 8zm0 0"/><path d="m56.199219 256h224c4.417969 0 8-3.582031 8-8s-3.582031-8-8-8h-224c-4.417969 0-8 3.582031-8 8s3.582031 8 8 8zm0 0"/><path d="m56.199219 288h224c4.417969 0 8-3.582031 8-8s-3.582031-8-8-8h-224c-4.417969 0-8 3.582031-8 8s3.582031 8 8 8zm0 0"/><path d="m288.199219 312c0-4.417969-3.582031-8-8-8h-224c-4.417969 0-8 3.582031-8 8s3.582031 8 8 8h224c4.417969 0 8-3.582031 8-8zm0 0"/><path d="m400.199219 392c-.050781-36.644531-27.585938-67.421875-64-71.527344v-312.472656c0-4.417969-3.582031-8-8-8h-248c-2.214844.0078125-4.324219.945312-5.816407 2.585938l-71.78125 71.175781c-.800781.808593-1.414062 1.777343-1.800781 2.847656-.519531 1.054687-.7929685 2.214844-.800781 3.390625.0351562.417969.101562.832031.199219 1.238281v406.761719c0 4.417969 3.582031 8 8 8h320c4.417969 0 8-3.582031 8-8v-24.472656c36.414062-4.105469 63.949219-34.882813 64-71.527344zm-328-364.726562v44.726562h-45.128907m-10.871093 408v-392h64c4.417969 0 8-3.582031 8-8v-64h232v304.472656c-36.339844 4.179688-63.769531 34.949219-63.769531 71.527344s27.429687 67.347656 63.769531 71.527344v16.472656zm312-32c-30.925781 0-56-25.070312-56-56s25.074219-56 56-56c30.929687 0 56 25.070312 56 56-.035157 30.914062-25.085938 55.964844-56 56zm0 0"/><path d="m364.199219 380h-28v-28c0-4.417969-3.582031-8-8-8s-8 3.582031-8 8v28h-28c-4.417969 0-8 3.582031-8 8s3.582031 8 8 8h28v28c0 4.417969 3.582031 8 8 8s8-3.582031 8-8v-28h28c4.417969 0 8-3.582031 8-8s-3.582031-8-8-8zm0 0"/></g></svg>