<svg height="512" viewBox="0 0 512 512" width="512" xmlns="http://www.w3.org/2000/svg"><g><g><g fill="#57a4ff"><path d="m255 336h1v-.55zm113 16v24h48v-24z"/><path d="m496 128v32h-480v-32a16 16 0 0 1 16-16h448a16 16 0 0 1 16 16z"/><path d="m255 336h1v-.55zm113 16v24h48v-24z"/><path d="m424 256h-240a16 16 0 0 0 -16 16v144a16 16 0 0 0 16 16h240a16 16 0 0 0 16-16v-144a16 16 0 0 0 -16-16zm-148 80h-40a20 20 0 1 1 20-20 20 20 0 0 1 39.84-2.53 19.2 19.2 0 0 1 .16 2.53 19.994 19.994 0 0 1 -20 20zm140 40h-48v-24h48z"/><path d="m256 335.45v.55h-1z"/><path d="m368 352h48v24h-48z"/></g><path d="m256 336-32 32" fill="none"/><path d="m256 336 32 32" fill="none"/></g><g fill="#004fac"><path d="m480 104h-448a24.032 24.032 0 0 0 -24 24v240a24.032 24.032 0 0 0 24 24h128v24a24.032 24.032 0 0 0 24 24h240a24.032 24.032 0 0 0 24-24v-24h32a24.032 24.032 0 0 0 24-24v-240a24.032 24.032 0 0 0 -24-24zm-320 168v104h-16a8.011 8.011 0 0 1 -8-8v-144a8.011 8.011 0 0 1 8-8h240a8.011 8.011 0 0 1 8 8v24h-208a24.032 24.032 0 0 0 -24 24zm272 40h-112a8 8 0 0 0 0 16h112v88a8.011 8.011 0 0 1 -8 8h-160v-48a8 8 0 0 0 -16 0v48h-64a8.011 8.011 0 0 1 -8-8v-88h16a8 8 0 0 0 0-16h-16v-40a8.011 8.011 0 0 1 8-8h64v8a8 8 0 0 0 16 0v-8h160a8.011 8.011 0 0 1 8 8zm56 56a8.011 8.011 0 0 1 -8 8h-32v-104a24.032 24.032 0 0 0 -24-24h-16v-24a24.032 24.032 0 0 0 -24-24h-240a24.032 24.032 0 0 0 -24 24v144a23.841 23.841 0 0 0 1.38 8h-89.38a8.011 8.011 0 0 1 -8-8v-200h464zm0-216h-464v-24a8.011 8.011 0 0 1 8-8h448a8.011 8.011 0 0 1 8 8z"/><circle cx="48" cy="136" r="8"/><circle cx="73" cy="136" r="8"/><circle cx="97" cy="136" r="8"/><path d="m304 316a27.981 27.981 0 0 0 -48-19.569 27.992 27.992 0 1 0 -20 47.569h.686l-18.343 18.343a8 8 0 0 0 11.314 11.314l26.343-26.343 26.343 26.343a8 8 0 0 0 11.314-11.314l-18.343-18.343h.686a28.032 28.032 0 0 0 28-28zm-28-12a12 12 0 0 1 0 24h-12v-12a12.013 12.013 0 0 1 12-12zm-52 12a12 12 0 0 1 24 0v12h-12a12.013 12.013 0 0 1 -12-12z"/><path d="m416 344h-48a8 8 0 0 0 -8 8v24a8 8 0 0 0 8 8h48a8 8 0 0 0 8-8v-24a8 8 0 0 0 -8-8zm-8 24h-32v-8h32z"/><path d="m384 392h-16a8 8 0 0 0 0 16h16a8 8 0 0 0 0-16z"/><path d="m416 392h-8a8 8 0 0 0 0 16h8a8 8 0 0 0 0-16z"/></g></g></svg>