<svg id="Capa_1" enable-background="new 0 0 504.365 504.365" height="512" viewBox="0 0 504.365 504.365" width="512" xmlns="http://www.w3.org/2000/svg"><g><path d="m410.647 174.012h.003l-10.256-30h-262.044-20l10.895 102.835-10.895 113.195c0 8.224 6.667 14.89 14.89 14.89h.002 19.998 53.6 115.32 73.598.002.009c.282 0 .542-.015.789-.04 7.85-.418 14.091-6.896 14.091-14.85v-79.6c-.001 0-.002 0-.003 0v-106.43z" fill="#b3e59f"/><path d="m404.716 78.95v-30.9c0-3.216-.264-6.438-.968-9.576-3.912-17.44-18.203-31.039-36.337-33.716-3.367-.497-6.733-.766-10.078-.817-24.87-.373-46.351 15.847-61.111 36.268l-2.256 42.367z" fill="#df646e"/><path d="m127.457 80.507-.719-35.617c1.367-20.576 35.379-38.936 35.379-38.936 4.912-.725 9.292-2.162 14.138-1.944 16.661.748 32.586 6.913 45.368 17.439 4.998 4.116 9.516 8.899 13.409 14.285l-5.192 49.241z" fill="#df646e"/><path d="m236.032 36.975-6.192 47.997-23-1.27v-28.3c0-13.39 5.69-25.47 14.78-33.95 5 4.11 10.522 10.133 14.412 15.523z" fill="#dc4955"/><path d="m366.19 4.592c-3.35-.45-6.7-.66-10.02-.66-17.898 0-35.137 6.276-48.789 17.521-5.054 4.163-9.955 9.409-13.795 14.714l.385 46.406 28.19-.9v-26.27c0-7.542-1.811-14.665-5.014-20.967-.534-1.051-.391-2.331.369-3.232 12.427-14.738 29.857-24.146 48.674-26.612z" fill="#dc4955"/><path d="m302.161 79.009v-23.606c0-14.615-11.848-26.463-26.464-26.463h-22.396c-14.615 0-26.463 11.848-26.463 26.463v23.606z" fill="#df646e"/><path d="m308.862 62.012v17l-45.447 5.96-43.277-5.96v-17z" fill="#dc4955"/><path d="m404.716 78.952-110.746 3.62v-3.56h8.19v-17h102.556z" fill="#dc4955"/><path d="m322.16 62.012v19.66l-20-2.66v-17z" fill="#d82f3c"/><path d="m226.84 79.012v-17h-77.264c-3.47 0-6.216-2.934-5.987-6.396l.691-10.434c1.37-20.58 16.91-37.41 37.31-40.42.41-.06.81-.12 1.22-.17-3.29-.44-6.62-.66-9.98-.66-3.72 0-7.48.27-11.24.83-18.7 2.759-33.316 17.131-36.678 35.359-.463 2.508-.632 5.062-.653 7.612l-.249 31.279 105.829 5.96.63-5.96z" fill="#dc4955"/><path d="m206.84 83.702v-21.69h20v17z" fill="#d82f3c"/><g><g><path d="m49.061 124.156c-.055 0-.109 0-.165-.002l-16.923-.365c-4.141-.089-7.426-3.519-7.336-7.66.088-4.086 3.429-7.338 7.495-7.338.055 0 .109 0 .165.002l16.923.365c4.141.089 7.426 3.519 7.336 7.66-.088 4.086-3.429 7.338-7.495 7.338z" fill="#df646e"/></g><g><path d="m57.697 94.465c-1.325 0-2.667-.351-3.883-1.088l-14.474-8.778c-3.541-2.148-4.671-6.76-2.523-10.302s6.762-4.671 10.303-2.523l14.474 8.778c3.541 2.148 4.671 6.76 2.523 10.302-1.411 2.326-3.885 3.611-6.42 3.611z" fill="#df646e"/></g><g><path d="m41.584 162.34c-2.649 0-5.217-1.406-6.581-3.892-1.993-3.631-.666-8.19 2.965-10.184l14.838-8.146c3.635-1.993 8.191-.665 10.184 2.965 1.993 3.631.666 8.19-2.965 10.184l-14.838 8.146c-1.146.629-2.383.927-3.603.927z" fill="#df646e"/></g></g><g><g><path d="m479.939 124.156c-4.067 0-7.407-3.252-7.495-7.338-.09-4.141 3.195-7.57 7.336-7.66l16.923-.365c4.163-.133 7.57 3.195 7.66 7.336s-3.195 7.57-7.336 7.66l-16.923.365c-.055.002-.11.002-.165.002z" fill="#df646e"/></g><g><path d="m471.303 94.465c-2.535 0-5.009-1.286-6.42-3.612-2.147-3.542-1.018-8.154 2.523-10.302l14.474-8.778c3.541-2.147 8.153-1.019 10.303 2.523 2.147 3.542 1.018 8.154-2.523 10.302l-14.474 8.778c-1.216.738-2.558 1.089-3.883 1.089z" fill="#df646e"/></g><g><path d="m487.416 162.34c-1.22 0-2.457-.298-3.603-.927l-14.838-8.146c-3.631-1.994-4.958-6.553-2.965-10.184 1.992-3.63 6.549-4.96 10.184-2.965l14.838 8.146c3.631 1.994 4.958 6.553 2.965 10.184-1.364 2.486-3.932 3.892-6.581 3.892z" fill="#df646e"/></g></g><path d="m418.286 79.009c8.223 0 14.889 6.666 14.889 14.889v45.228c0 8.223-13.325 11.639-21.548 11.639l-298.213.691c-8.223 0-14.889-6.666-14.889-14.889l1.953-40.699c0-8.223 2.012-16.859 10.235-16.859h96.126l51.851 11.71 63.468-11.71z" fill="#ccf49f"/><path d="m138.35 344.472v-167.46c0-1.657 1.343-3 3-3h269.3v-30h-272.3-20v30 105.69 80.34z" fill="#95d6a4"/><path d="m322.16 130.012v-51h-19.999l-41.555 10.941-33.768-10.941h-19.998v51c0 2.209-1.791 4-4 4h-83.02c-2.209 0-4-1.791-4-4v-51h-5.11c-8.22 0-14.89 6.66-14.89 14.89v45.22c0 8.23 6.67 14.89 14.89 14.89h96.13 115.32 96.13c8.22 0 14.89-6.66 14.89-14.89v-5.11h-107.02c-2.209 0-4-1.791-4-4z" fill="#b3e59f"/><path d="m322.16 79.012h-115.32" fill="none"/><path d="m226.84 79.012v75l15.256 136.069-6.064 84.851h56.106l-5.447-55.915 15.469-165.005v-75z" fill="#df646e"/><path d="m302.161 334.272-75.321-26.977v-153.283h75.321z" fill="#dc4955"/><path d="m302.16 333.752v41.18h-75.32v-81.32c24.55 12.27 67.38 35.71 70.92 37.65 1.48.79 2.93 1.63 4.33 2.53z" fill="#dc4955"/><path d="m298.897 364.986 17.79-16.368 80.137-43.548c15.614-8.473 34.347-5.488 46.599 6.089 3.04 2.872-5.242 15.688-5.242 15.688l16.606 1.381-162.649 95.64z" fill="#f2d1a5"/><path d="m454.79 328.232-3.59-6.91c-2.1-3.89-4.74-7.29-7.78-10.16-4.26 1.2-8.41 2.87-12.34 5l-100.027 54.786c-1.694.928-3.841.051-4.341-1.815-1.973-7.374-5.358-14.359-10.023-20.511l-16.97 9.22-3.708 32.299-.002.001-3.87 33.73 33.12-19.47c.001-.002.001-.004.002-.006z" fill="#f2bb88"/><path d="m494.58 349.079c-10.543-19.549-34.888-26.823-54.376-16.248l-143.65 78.679.52-8.918c3.41-6.529 12.966-13.219 12.64-20.083-.654-13.745-8.368-26.788-21.423-33.626 0 0-63.892-35.033-81.485-42.683-15.168-6.596-35.801-8.767-63.662-8.767-22.241 0-40.778 6.271-54.143 13.681-9.388 5.205-11.469 19.864-15.245 24.415l-4.756 114.802 101.862 34.985c38.492 15.23 80.29 14.891 116.681-4.851l195.574-105.532c9.633-5.227 16.651-15.802 11.64-25.518-.058-.113-.117-.225-.177-.336z" fill="#f2d1a5"/><path d="m494.76 349.412c-57.38 31.1-215.33 116.51-215.33 116.51-17.49 9.49-37.26 14.51-57.15 14.51 0 0 0 0-.01 0-15.15 0-29.98-2.83-44.08-8.41l-84.876-35.275c-2.612-1.085-4.314-3.636-4.314-6.464v-119.171c-9.39 5.21-16.22 10.97-20 15.52l-31.16 66.025 31.16 57.675 101.83 40.29c38.49 15.23 81.74 12.63 118.13-7.12l197.52-107.15c9.64-5.23 13.29-17.23 8.28-26.94z" fill="#f2bb88"/><path d="m12.649 483.06 38.681 1.242c5.523 0 10-4.477 10-10l7.67-7.6v-159.27c0-5.523-4.477-10-10-10h-39l-6.543 4.952c-5.523 0-10 4.477-10 10l-.808 160.676c0 5.523 4.477 10 10 10z" fill="#5f6c75"/><path d="m69 466.702v10c0 5.523-4.477 10-10 10h-49c-5.523 0-10-4.477-10-10v-169.27c0-5.523 4.477-10 10-10h10v161.27c0 4.418 3.582 8 8 8z" fill="#4e5a61"/><path d="m307.5 397.632c-.63 1.8-1.39 3.57-2.3 5.31-3.57 6.84-10.53 10.75-17.74 10.75-3.13 0-6.3-.74-9.26-2.29l-86.827-45.482c-6.7-3.51-8.955-12.006-4.876-18.376 3.606-5.631 10.918-7.571 16.842-4.469l88.251 46.226c8.86 4.65 19.21-2.98 17.38-12.76 1.38 6.881.97 14.161-1.47 21.091z" fill="#f2bb88"/></g></svg>