<svg id="Capa_1" enable-background="new 0 0 511.998 511.998" height="512" viewBox="0 0 511.998 511.998" width="512" xmlns="http://www.w3.org/2000/svg"><g><g><path d="m463.885 229.819c-.761 25.965-2.513 51.929-5.276 77.905-1.46 13.744-12.576 24.422-26.34 25.516-87.123 6.903-174.245 6.903-261.368 0-13.775-1.095-24.891-11.773-26.351-25.516-.136-1.293-.271-2.576-.396-3.869-7.226-70.459-7.091-140.929.396-211.388 1.46-13.733 12.576-24.421 26.351-25.516 27.915-2.211 55.84-3.712 83.765-4.505 31.283-.886 62.555-.886 93.838 0 27.925.793 55.84 2.294 83.765 4.505 13.764 1.095 24.88 11.783 26.34 25.516 4.859 45.787 6.622 91.564 5.276 137.352z" fill="#f4dd45"/><path d="m463.885 229.819c-.761 25.965-2.513 51.929-5.276 77.905-1.46 13.744-12.576 24.422-26.34 25.516-87.123 6.903-174.245 6.903-261.368 0-13.775-1.095-24.891-11.773-26.351-25.516-.136-1.293-.271-2.576-.396-3.869 4.953-15.85 27.185-32.68 106.309-20.073 133.766 21.314 213.422-53.963 213.422-53.963z" fill="#ecbe6b"/><path d="m187.69 334.483c-5.6-.386-11.199-.793-16.799-1.241-13.765-1.095-24.88-11.773-26.34-25.516-7.622-71.752-7.622-143.505 0-215.257 1.46-13.733 12.576-24.421 26.34-25.516 5.599-.438 11.199-.855 16.799-1.241-5.172 4.87-8.645 11.512-9.437 18.999-8.175 76.924-8.175 153.849 0 230.773.793 7.487 4.265 14.139 9.437 18.999z" fill="#ecbe6b"/><path d="m348.504 62.446v108.593l-46.924-32.691-46.914 32.691v-108.593c31.283-.887 62.555-.887 93.838 0z" fill="#595959"/></g><g><path d="m499.541 305.3h-.009l-134.511 107.897c-11.054 8.868-25.238 12.907-39.315 11.189l-181.291-22.063-48.305 17.868c-25.949-26.686-15.286-112.552-15.286-112.552l11.504-3.148c-.998-15.371 6.251-30.635 19.707-39.368 1.484-.971 3.04-1.853 4.677-2.653l77.739-37.965 39.98-19.527c2.177-1.061 4.398-1.898 6.656-2.509 16.711-4.578 34.853 2.77 43.407 18.528 9.705 17.89 3.589 40.25-13.87 50.71l-64.624 38.729 108.751 18.942c13.087 2.276 26.551-.477 37.704-7.717l108.158-70.21c14.508-9.426 33.81-6.152 44.414 7.528 2.743 3.544 4.668 7.474 5.792 11.558 3.401 12.412-.62 26.209-11.278 34.763z" fill="#ffcbbe"/><path d="m325.409 395.406c-74.476 9.674-125.82-33.999-156.884-75.087-15.403-20.373-10.209-49.514 11.293-63.297 74.997-48.073 94.395-46.307 104.676-36.027-8.554-15.758-26.696-23.107-43.407-18.528-2.258.612-4.479 1.448-6.656 2.509l-39.98 19.527-63.009 30.772s-.006.01-.008.012l-14.722 7.181c-16.433 8.023-25.49 24.951-24.384 42.022l-38.301 13.165s16.134 75.849 42.083 102.536l48.305-17.868 181.291 22.063c14.076 1.718 28.261-2.321 39.315-11.189l134.511-107.897c-46.483-12.61-123.961 82.434-174.123 90.106z" fill="#eaac9d"/><path d="m242.168 269.553c-6.374 0-12.56-3.094-16.335-8.732-8.347-12.465-10.81-24.946-10.911-25.471-.804-4.191 1.942-8.24 6.132-9.044 4.18-.801 8.226 1.932 9.04 6.112.043.212 2.084 10.107 8.579 19.805 1.194 1.785 3.645 2.373 5.58 1.342l9.694-5.17c3.766-2.009 8.445-.584 10.454 3.182 2.007 3.765.584 8.445-3.182 10.453l-9.694 5.17c-2.984 1.591-6.194 2.353-9.357 2.353z" fill="#eaac9d"/><ellipse cx="55.426" cy="373.523" fill="#3b66c1" rx="48.549" ry="97.874" transform="matrix(.943 -.333 .333 .943 -121.28 39.807)"/><path d="m110.852 427.339c-19.885 12.419-41.46 20.042-64.735 22.878-4.619-11.116-9.072-22.284-13.368-33.504 24.244-2.993 46.757-10.866 67.54-23.629 3.68 11.366 7.205 22.784 10.563 34.255z" fill="#26457d"/></g><circle cx="72.525" cy="417.299" fill="#404a4a" r="7.727"/></g></svg>