<svg height="512" viewBox="0 0 512 512" width="512" xmlns="http://www.w3.org/2000/svg"><g><g fill="#57a4ff"><path d="m496 60v28h-480v-28a19.994 19.994 0 0 1 20-20h440a19.994 19.994 0 0 1 20 20z"/><path d="m80 264h56v128h-56z"/><circle cx="376" cy="224" r="64"/><path d="m80 264h56v128h-56z"/><circle cx="376" cy="224" r="64"/></g><g fill="#004fac"><path d="m476 480h-440a28.032 28.032 0 0 1 -28-28v-392a28.032 28.032 0 0 1 28-28h440a28.032 28.032 0 0 1 28 28v392a28.032 28.032 0 0 1 -28 28zm-440-432a12.013 12.013 0 0 0 -12 12v392a12.013 12.013 0 0 0 12 12h440a12.013 12.013 0 0 0 12-12v-392a12.013 12.013 0 0 0 -12-12z"/><g><path d="m416.035 440.035h-176.47a23.9 23.9 0 0 1 -16.79-6.847l-55.684-54.854a8.055 8.055 0 0 0 -5.616-2.3h-25.44a8 8 0 0 1 -8-8v-80a8 8 0 0 1 8-8h88l33.8-.07a23.976 23.976 0 0 1 17.711 7.749l65.042 70.623a24.044 24.044 0 0 1 6.876 17.7h68.569a24.027 24.027 0 0 1 24 24v16a24.027 24.027 0 0 1 -23.998 23.999zm-272-80h17.44a23.844 23.844 0 0 1 16.849 6.9l55.655 54.826a7.97 7.97 0 0 0 5.586 2.269h176.47a8.009 8.009 0 0 0 8-8v-16a8.009 8.009 0 0 0 -8-8h-79.21a8 8 0 0 1 -6.66-12.432 8.017 8.017 0 0 0 -1.017-10.081q-.115-.117-.228-.237l-65.149-70.741a7.994 7.994 0 0 0 -5.881-2.579c-.007 0-.016 0-.018 0l-33.82.07h-80.017z"/><path d="m312.18 410.493a23.846 23.846 0 0 1 -16.972-7.031l-50.91-50.91a8 8 0 1 1 11.314-11.314l50.91 50.91a8 8 0 0 0 11.316 0l11.31-11.31a8.008 8.008 0 0 0 1.021-1.24 8 8 0 1 1 13.312 8.875 24.184 24.184 0 0 1 -3.019 3.679l-11.31 11.31a23.845 23.845 0 0 1 -16.972 7.031z"/></g><path d="m136 400h-56a8 8 0 0 1 -8-8v-128a8 8 0 0 1 8-8h56a8 8 0 0 1 8 8v128a8 8 0 0 1 -8 8zm-48-16h40v-112h-40z"/><path d="m376 296a72 72 0 1 1 72-72 72.081 72.081 0 0 1 -72 72zm0-128a56 56 0 1 0 56 56 56.064 56.064 0 0 0 -56-56z"/><path d="m392 256h-32a8 8 0 0 1 0-16h24v-8h-24a8 8 0 0 1 -8-8v-24a8 8 0 0 1 8-8h32a8 8 0 0 1 0 16h-24v8h24a8 8 0 0 1 8 8v24a8 8 0 0 1 -8 8z"/><path d="m376 208a8 8 0 0 1 -8-8v-8a8 8 0 0 1 16 0v8a8 8 0 0 1 -8 8z"/><path d="m376 264a8 8 0 0 1 -8-8v-8a8 8 0 0 1 16 0v8a8 8 0 0 1 -8 8z"/><path d="m496 96h-480a8 8 0 0 1 0-16h480a8 8 0 0 1 0 16z"/><path d="m56 72h-8a8 8 0 0 1 0-16h8a8 8 0 0 1 0 16z"/><path d="m88 72h-8a8 8 0 0 1 0-16h8a8 8 0 0 1 0 16z"/><path d="m120 72h-8a8 8 0 0 1 0-16h8a8 8 0 0 1 0 16z"/></g></g></svg>