<svg id="Layer_1" enable-background="new 0 0 512 512" height="512" viewBox="0 0 512 512" width="512" xmlns="http://www.w3.org/2000/svg"><g><path d="m436.361 432.8c40.129-43.63 64.641-101.85 64.641-165.802 0-135.311-109.691-245.002-245.002-245.002s-245.002 109.691-245.002 245.002c0 63.458 24.126 121.28 63.706 164.797z" fill="#4ce088"/><path d="m256 512c71.359 0 135.583-30.516 180.361-79.2v-29.507h-119.29c-6.232 0-11.302-5.069-11.302-11.301v-171.13c0-6.232 5.07-11.301 11.302-11.301h119.289v-82.66c-8.139-35.437-46.75-37.608-47.245-37.628h-34.395c-4.214 0-7.631-3.417-7.631-7.631v-36.854c-.135-6.802-2.518-37.479-33.828-44.742-.111-.013-.293-.033-.404-.046h-223.966c-7.836 0-14.188 6.352-14.188 14.188v417.607c44.816 49.273 109.444 80.205 181.297 80.205z" fill="#4b6bb2"/><path d="m167.829 0h-78.938c-7.836 0-14.188 6.352-14.188 14.188v417.607c24.939 27.419 56.019 49.148 91.059 63.038-3.041-9.333 2.067-18.73 2.067-18.73v-15c-9.671-12.731 0-25.544 0-25.544v-15c-8.671-13.066 0-25.544 0-25.544v-15c-11.078-11.078 0-25.544 0-25.544v-15c-8.921-12.029 0-25.544 0-25.544v-15c-9.921-13.073 0-25.544 0-25.544v-15c-10.171-12.45 0-25.544 0-25.544v-15c-10.171-12.994 0-25.544 0-25.544v-15c-10.505-13.538 0-25.544 0-25.544v-15c-8.838-12.416 0-25.544 0-25.544v-15c-21.838-17.793-7.5-39.935-7.5-39.935v-15c-14.671-24.977 7.5-41.272 7.5-41.272z" fill="#3c58a0"/><path d="m413.216 67.628-44.483-44.483c-14.819-14.82-34.919-23.145-55.876-23.145h-14.075c43.794 0 46.662 37.532 46.806 44.818v36.824c0 5.043 4.088 9.131 9.131 9.131h34.397s47.245 2.1 47.245 50.1v-17.368c0-20.959-8.326-41.058-23.145-55.877z" fill="#f7f7f7"/><g><path d="m245.532 111.207h-104.16c-4.142 0-7.5-3.357-7.5-7.5s3.358-7.5 7.5-7.5h104.161c4.142 0 7.5 3.357 7.5 7.5-.001 4.143-3.359 7.5-7.501 7.5z" fill="#6087cc"/></g><g><path d="m159.861 56.273h-18.49c-4.142 0-7.5-3.357-7.5-7.5s3.358-7.5 7.5-7.5h18.49c4.142 0 7.5 3.357 7.5 7.5s-3.358 7.5-7.5 7.5z" fill="#e9efff"/></g><g><path d="m367.571 151.751h-226.2c-4.142 0-7.5-3.357-7.5-7.5s3.358-7.5 7.5-7.5h226.2c4.142 0 7.5 3.357 7.5 7.5s-3.358 7.5-7.5 7.5z" fill="#6087cc"/></g><g><path d="m312.389 192.372c-.003 0-.004 0-.007 0l-170.905-.154c-4.142-.004-7.497-3.364-7.493-7.507.004-4.14 3.361-7.493 7.5-7.493h.007l170.905.154c4.142.004 7.497 3.364 7.493 7.507-.004 4.14-3.362 7.493-7.5 7.493z" fill="#6087cc"/></g><g><path d="m279.452 232.916c-.003 0-.005 0-.008 0l-138.013-.154c-4.142-.005-7.496-3.366-7.492-7.509.004-4.139 3.362-7.491 7.5-7.491h.008l138.013.154c4.142.005 7.496 3.366 7.492 7.509-.005 4.139-3.362 7.491-7.5 7.491z" fill="#6087cc"/></g><g><path d="m279.407 273.46c-.003 0-.005 0-.008 0l-138.013-.154c-4.142-.005-7.496-3.366-7.492-7.509.004-4.139 3.362-7.491 7.5-7.491h.008l138.013.154c4.142.005 7.496 3.366 7.492 7.509-.005 4.139-3.362 7.491-7.5 7.491z" fill="#6087cc"/></g><g><path d="m279.362 314.004c-.003 0-.005 0-.008 0l-138.013-.154c-4.142-.005-7.496-3.366-7.492-7.509.004-4.139 3.362-7.491 7.5-7.491h.008l138.013.154c4.142.005 7.496 3.366 7.492 7.509-.005 4.139-3.362 7.491-7.5 7.491z" fill="#6087cc"/></g><g><path d="m279.317 354.548c-.003 0-.005 0-.008 0l-138.013-.155c-4.142-.005-7.497-3.366-7.492-7.509.005-4.139 3.362-7.491 7.5-7.491h.008l138.013.155c4.142.005 7.497 3.366 7.492 7.509-.005 4.138-3.362 7.491-7.5 7.491z" fill="#6087cc"/></g><g><path d="m279.272 395.092c-.003 0-.005 0-.008 0l-138.013-.155c-4.142-.005-7.497-3.366-7.492-7.509.005-4.139 3.362-7.491 7.5-7.491h.008l138.013.155c4.142.005 7.497 3.366 7.492 7.509-.004 4.139-3.361 7.491-7.5 7.491z" fill="#6087cc"/></g><g><path d="m367.571 435.559h-226.2c-4.142 0-7.5-3.357-7.5-7.5s3.358-7.5 7.5-7.5h226.2c4.142 0 7.5 3.357 7.5 7.5 0 4.142-3.358 7.5-7.5 7.5z" fill="#6087cc"/></g><g><path d="m298.782 476.103h-157.41c-4.142 0-7.5-3.357-7.5-7.5s3.358-7.5 7.5-7.5h157.41c4.142 0 7.5 3.357 7.5 7.5 0 4.142-3.358 7.5-7.5 7.5z" fill="#6087cc"/></g><path d="m304.27 263.96v128.031c0 7.041 5.76 12.801 12.801 12.801h171.13c7.041 0 12.801-5.76 12.801-12.801v-128.031z" fill="#e9efff"/><path d="m304.27 391.992c0 7.041 5.76 12.801 12.801 12.801h58c-11.983-18.374 4.398-31.296 4.398-31.296v-79c-19.168-9.753-10.415-28.614-10.415-28.614-.628-.628-1.178-1.272-1.693-1.923h-63.091z" fill="#d3dcfb"/><path d="m488.201 208.061h-171.13c-7.041 0-12.801 5.76-12.801 12.801v45.098h196.732v-45.098c0-7.041-5.76-12.801-12.801-12.801z" fill="#ff4155"/><path d="m369.054 232.916v-24.855h-51.983c-7.041 0-12.801 5.76-12.801 12.801v45.098h64.75c.021-.047.034-.077.034-.077-13.475-13.475 0-32.967 0-32.967z" fill="#e80054"/><g><path d="m335.473 232.916c-4.142 0-7.5-3.357-7.5-7.5v-34.919c0-4.143 3.358-7.5 7.5-7.5s7.5 3.357 7.5 7.5v34.919c0 4.143-3.358 7.5-7.5 7.5z" fill="#ffdd40"/></g><g><path d="m369.054 232.916c-4.142 0-7.5-3.357-7.5-7.5v-34.919c0-4.143 3.358-7.5 7.5-7.5s7.5 3.357 7.5 7.5v34.919c0 4.143-3.358 7.5-7.5 7.5z" fill="#ffdd40"/></g><g><path d="m469.799 232.916c-4.142 0-7.5-3.357-7.5-7.5v-34.919c0-4.143 3.358-7.5 7.5-7.5s7.5 3.357 7.5 7.5v34.919c0 4.143-3.358 7.5-7.5 7.5z" fill="#ffdd40"/></g><g><path d="m436.218 232.916c-4.142 0-7.5-3.357-7.5-7.5v-34.919c0-4.143 3.358-7.5 7.5-7.5s7.5 3.357 7.5 7.5v34.919c0 4.143-3.358 7.5-7.5 7.5z" fill="#ffdd40"/></g><g><path d="m402.636 232.916c-4.142 0-7.5-3.357-7.5-7.5v-34.919c0-4.143 3.358-7.5 7.5-7.5s7.5 3.357 7.5 7.5v34.919c0 4.143-3.358 7.5-7.5 7.5z" fill="#ffdd40"/></g><g fill="#ffb332"><path d="m335.473 212.675c-4.142 0-7.5-3.357-7.5-7.5v20.241c0 4.143 3.358 7.5 7.5 7.5s7.5-3.357 7.5-7.5v-20.241c0 4.143-3.358 7.5-7.5 7.5z"/><path d="m369.054 212.675c-4.142 0-7.5-3.357-7.5-7.5v20.241c0 4.143 3.358 7.5 7.5 7.5s7.5-3.357 7.5-7.5v-20.241c0 4.143-3.358 7.5-7.5 7.5z"/><path d="m469.799 212.675c-4.142 0-7.5-3.357-7.5-7.5v20.241c0 4.143 3.358 7.5 7.5 7.5s7.5-3.357 7.5-7.5v-20.241c0 4.143-3.358 7.5-7.5 7.5z"/><path d="m436.218 212.675c-4.142 0-7.5-3.357-7.5-7.5v20.241c0 4.143 3.358 7.5 7.5 7.5s7.5-3.357 7.5-7.5v-20.241c0 4.143-3.358 7.5-7.5 7.5z"/><path d="m402.636 212.675c-4.142 0-7.5-3.357-7.5-7.5v20.241c0 4.143 3.358 7.5 7.5 7.5s7.5-3.357 7.5-7.5v-20.241c0 4.143-3.358 7.5-7.5 7.5z"/></g><g><path d="m348.136 309.497h-7.5c-4.142 0-7.5-3.357-7.5-7.5s3.358-7.5 7.5-7.5h7.5c4.142 0 7.5 3.357 7.5 7.5s-3.358 7.5-7.5 7.5z" fill="#bec8f7"/></g><g><path d="m386.969 309.497h-7.5c-4.142 0-7.5-3.357-7.5-7.5s3.358-7.5 7.5-7.5h7.5c4.142 0 7.5 3.357 7.5 7.5s-3.358 7.5-7.5 7.5z" fill="#bec8f7"/></g><g><path d="m425.803 309.497h-7.5c-4.142 0-7.5-3.357-7.5-7.5s3.358-7.5 7.5-7.5h7.5c4.142 0 7.5 3.357 7.5 7.5s-3.358 7.5-7.5 7.5z" fill="#bec8f7"/></g><g><path d="m464.636 309.497h-7.5c-4.142 0-7.5-3.357-7.5-7.5s3.358-7.5 7.5-7.5h7.5c4.142 0 7.5 3.357 7.5 7.5s-3.358 7.5-7.5 7.5z" fill="#bec8f7"/></g><g><path d="m348.136 341.497h-7.5c-4.142 0-7.5-3.357-7.5-7.5s3.358-7.5 7.5-7.5h7.5c4.142 0 7.5 3.357 7.5 7.5s-3.358 7.5-7.5 7.5z" fill="#bec8f7"/></g><g><path d="m386.969 341.497h-7.5c-4.142 0-7.5-3.357-7.5-7.5s3.358-7.5 7.5-7.5h7.5c4.142 0 7.5 3.357 7.5 7.5s-3.358 7.5-7.5 7.5z" fill="#bec8f7"/></g><g><path d="m425.803 341.497h-7.5c-4.142 0-7.5-3.357-7.5-7.5s3.358-7.5 7.5-7.5h7.5c4.142 0 7.5 3.357 7.5 7.5s-3.358 7.5-7.5 7.5z" fill="#bec8f7"/></g><g><path d="m464.636 341.497h-7.5c-4.142 0-7.5-3.357-7.5-7.5s3.358-7.5 7.5-7.5h7.5c4.142 0 7.5 3.357 7.5 7.5s-3.358 7.5-7.5 7.5z" fill="#bec8f7"/></g><g><path d="m348.136 373.497h-7.5c-4.142 0-7.5-3.357-7.5-7.5s3.358-7.5 7.5-7.5h7.5c4.142 0 7.5 3.357 7.5 7.5s-3.358 7.5-7.5 7.5z" fill="#bec8f7"/></g><g><path d="m386.969 373.497h-7.5c-4.142 0-7.5-3.357-7.5-7.5s3.358-7.5 7.5-7.5h7.5c4.142 0 7.5 3.357 7.5 7.5s-3.358 7.5-7.5 7.5z" fill="#bec8f7"/></g><g><path d="m425.803 373.497h-7.5c-4.142 0-7.5-3.357-7.5-7.5s3.358-7.5 7.5-7.5h7.5c4.142 0 7.5 3.357 7.5 7.5s-3.358 7.5-7.5 7.5z" fill="#bec8f7"/></g><g><path d="m464.636 373.497h-7.5c-4.142 0-7.5-3.357-7.5-7.5s3.358-7.5 7.5-7.5h7.5c4.142 0 7.5 3.357 7.5 7.5s-3.358 7.5-7.5 7.5z" fill="#bec8f7"/></g><path d="m26.037 351.647c9.974-13.498 15.894-30.15 15.894-48.123v-65.205c0-19.093-6.687-36.69-17.813-50.603-8.501 24.868-13.121 51.535-13.121 79.282.001 29.757 5.321 58.267 15.04 84.649z" fill="#5efc9e"/><path d="m399.56 53.972-30.827-30.827c-14.819-14.82-34.919-23.145-55.876-23.145h-14.075c43.793 0 46.662 37.532 46.806 44.818v36.824c0 5.043 4.088 9.131 9.131 9.131h20.352c-5.46-32.895 24.489-36.801 24.489-36.801z" fill="#e9efff"/></g></svg>