<svg id="Capa_1" enable-background="new 0 0 500.637 500.637" height="512" viewBox="0 0 500.637 500.637" width="512" xmlns="http://www.w3.org/2000/svg"><path d="m495.318 255.637c0 32.333-6.263 63.204-17.643 91.465-36.243 90.005-412.775 94.034-451.049 8.618-13.692-30.557-21.308-64.431-21.308-100.083 0-135.31 109.69-245 245-245s245 109.69 245 245z" fill="#fdd33a"/><path d="m467.123 105.019h-432.11c-6.597 0-11.945 5.348-11.945 11.945v156.043 74.282c8.946 22.163 21.038 42.718 35.724 61.112 2.659 3.331 19.403-2.41 22.229.776 2.826 3.185-8.266 15.297-5.28 18.331 25.301 25.705 56.234 45.849 90.801 58.429 4.48 1.631 9.021-11.866 13.619-10.494 4.129 1.232 8.303 17.358 12.52 18.375 18.483 4.458 37.784 6.819 57.637 6.819 14.112 0 27.945-1.193 41.404-3.484 3.814-.649 7.598-11.387 11.35-12.21 3.752-.824 7.472 8.267 11.157 7.274 34.776-9.374 66.489-26.213 93.316-48.693 3.718-3.116 2.343-15.34 5.869-18.668 2.743-2.589 10.427 3.759 13.048 1.047 22.667-23.452 40.695-51.417 52.606-82.417v-75.663-150.859c0-6.597-5.347-11.945-11.945-11.945z" fill="#c0e0ff"/><path d="m410.015 105.019h-213.776c1.344 11.94 4.043 24.276 7.726 36.717h197.885c3.875-12.554 6.729-24.906 8.165-36.717z" fill="#aadaf2"/><path d="m87.068 116.582c0-5.577 3.827-10.247 8.995-11.563h-61.05c-6.597 0-11.945 5.348-11.945 11.945v156.043 74.282c8.946 22.163 21.039 42.718 35.724 61.111 3.089 3.869 14.292 3.642 17.606 7.314 2.391 2.651-3.16 9.249-.656 11.792 3.66 3.718 7.437 7.32 11.327 10.799v-165.68-156.043z" fill="#aadaf2"/><path d="m442.982 131.736h-383.827c-6.597 0-11.945 5.348-11.945 11.945v248.949c3.657 5.413 7.524 10.671 11.591 15.764 2.659 3.33 16.403 6.59 19.229 9.776s-5.267 6.297-2.281 9.331c25.3 25.706 56.23 45.851 90.795 58.434 4.251 1.548 8.558-12.019 12.916-10.704s8.767 17.512 13.223 18.587c18.483 4.458 37.783 6.821 57.636 6.821 14.112 0 27.945-1.194 41.403-3.485 3.814-.649 7.598-21.387 11.35-22.211s7.471 18.267 11.157 17.273c34.775-9.375 66.486-26.217 93.311-48.698 3.488-2.923 6.893-23.941 10.212-27.051 2.972-2.785 5.874 12.357 8.704 9.429 10.544-10.91 20.084-22.796 28.472-35.51v-246.705c-.001-6.597-5.349-11.945-11.946-11.945z" fill="#53e09c"/><ellipse cx="302.568" cy="278.137" fill="#1aaa5e" rx="41.5" ry="11.5"/><path d="m454.864 142.452c-.004-.034-.012-.067-.015-.101-.041-.37-.095-.736-.169-1.095-.001-.003-.002-.006-.002-.009-.162-.78-.4-1.532-.705-2.248l-100.675 28.501-10.125-35.764h-23.904l11.899 42.03-99.149 28.07-19.846-70.1h-23.904l21.62 76.365-90.817 25.711-28.9-102.076h-23.904l61.508 217.256c-15.919 8.761-26.708 25.69-26.708 45.144 0 .762.025 1.518.057 2.272l-42.32 11.982c5.318 6.661 10.975 13.038 16.947 19.106l31.481-8.913c8.705 16.108 25.741 27.053 45.336 27.053.856 0 1.706-.023 2.551-.065l11.425 40.356c8.503 3.095 17.224 5.737 26.137 7.887l-15.423-54.477c15.975-8.744 26.809-25.707 26.809-45.202 0-.989-.034-1.969-.089-2.943l53.46-15.135 34.281 121.086c7.628-1.299 15.136-2.95 22.506-4.937l-34.656-122.413 99.149-28.07 28.818 101.791c6.611-5.54 12.925-11.424 18.915-17.622l-66.889-236.26 95.364-26.999v-18.951c0-.416-.021-.826-.063-1.23zm-302.296 280.185c-15.74 0-28.5-12.76-28.5-28.5s12.76-28.5 28.5-28.5 28.5 12.76 28.5 28.5-12.759 28.5-28.5 28.5zm45.005-53.534c-8.799-15.784-25.651-26.466-45.005-26.466-.895 0-1.784.023-2.668.068l-24.564-86.762 90.817-25.711 35.02 123.696zm174.88-49.511-99.149 28.07-35.02-123.696 99.149-28.07z" fill="#fff"/><path d="m398.068 94.896c0 58.06-48.715 137.468-76.338 177.827-8.996 13.144-28.341 13.266-37.478.22-27.684-39.527-75.976-117.197-75.976-178.047 0-52.41 42.487-94.896 94.896-94.896s94.896 42.486 94.896 94.896z" fill="#5f6294"/><path d="m325.74 2.722c-7.236-1.765-14.788-2.722-22.568-2.722-52.41 0-94.896 42.486-94.896 94.896 0 60.85 48.291 138.52 75.976 178.047 9.137 13.046 28.482 12.924 37.478-.22 1.198-1.751 2.439-3.58 3.711-5.473-28.08-40.945-72.03-114.303-72.03-172.354 0-44.63 30.818-82.044 72.329-92.174z" fill="#474979"/><circle cx="303.172" cy="94.896" fill="#2d3259" r="71.134"/></svg>