<svg id="Capa_1" enable-background="new 0 0 512 512" height="512" viewBox="0 0 512 512" width="512" xmlns="http://www.w3.org/2000/svg"><g><g><g><g><g><circle cx="256" cy="256" fill="#00ddc1" r="256"/></g></g></g></g><path d="m309.561 294.892-95.505-99.479-80.188-80.188-53.231 8.546-9.644 9.644 94.399 94.399 28.736 90.058-28.205 4.87-11.631 50.041 136.811 136.811c124.075-17.017 219.803-122.93 220.87-251.428l-82.842-82.843z" fill="#00baa0"/><g><path d="m294.188 175.323h-151.298l46.717 144.706h104.581l11.481-67.628z" fill="#f9163d"/><path d="m294.188 320.029h99.808l35.134-144.706h-134.942z" fill="#c8001c"/><path d="m294.188 366.655h-110.527c-10.11 0-18.336-8.225-18.336-18.336 0-10.11 8.226-18.336 18.336-18.336h22.115l-71.908-214.758h-24.174c-5.497 0-9.954 4.457-9.954 9.954s4.457 9.954 9.954 9.954h9.838l58.726 175.323c-18.538 2.634-32.842 18.61-32.842 37.864 0 21.087 17.156 38.243 38.244 38.243h110.527l10.442-9.954z" fill="#5a5f64"/><path d="m294.188 310.075h-102.235c-5.497 0-9.954 4.457-9.954 9.954s4.457 9.954 9.954 9.954h102.234l10.442-9.954z" fill="#5a5f64"/><g fill="#4b5055"><path d="m396.422 310.075h-102.234v19.908h102.234c5.497 0 9.954-4.457 9.954-9.954s-4.457-9.954-9.954-9.954z"/><path d="m396.422 366.655h-102.234v19.908h102.234c5.497 0 9.954-4.457 9.954-9.954 0-5.498-4.457-9.954-9.954-9.954z"/><circle cx="219.79" cy="376.609" r="34.487"/></g><circle cx="379.127" cy="376.609" fill="#373c41" r="34.487"/><circle cx="219.79" cy="376.609" fill="#5a5f64" r="13.63"/><circle cx="379.127" cy="376.609" fill="#4b5055" r="13.63"/><g><g><path d="m294.188 232.887h-13.312v-31.346h13.312l2.527 16.161z" fill="#ffe377"/><path d="m294.167 201.541h13.311v31.346h-13.311z" fill="#ffd944"/></g><g><path d="m294.188 288.536h-13.312v-31.346h13.312l2.527 16.162z" fill="#ffe377"/><path d="m294.167 257.19h13.311v31.346h-13.311z" fill="#ffd944"/></g><path d="m335.047 201.541v31.346h26.602v-31.346zm0 86.995h26.602v-31.346h-26.602z" fill="#ffd944"/><path d="m226.706 201.541v31.346h26.602v-31.346zm0 86.995h26.602v-31.346h-26.602z" fill="#ffe377"/></g><g><g><g><path d="m112.827 136.889h-33.509c-6.468 0-11.71-5.243-11.71-11.71 0-6.468 5.243-11.71 11.71-11.71h33.509z" fill="#ff415b"/></g></g></g></g></g></svg>