<svg id="Capa_1" enable-background="new 0 0 501 501" height="512" viewBox="0 0 501 501" width="512" xmlns="http://www.w3.org/2000/svg"><g><path d="m490 256c0 121.946-89.094 223.083-205.74 241.871-15.974-67.742-76.436-115.606-146.036-115.606h-103.224c-22.219-36.874-35-80.077-35-126.265 0-135.181 109.482-244.792 244.615-245 135.042-.207 245.385 109.958 245.385 245z" fill="#6dc54a"/><path d="m218.279 389.046-57.433-127.677c-3.398-7.555-.029-16.435 7.526-19.833l191.516-86.149c7.555-3.398 16.435-.029 19.833 7.526l57.433 127.677c3.398 7.555.029 16.435-7.526 19.833l-191.516 86.149c-7.555 3.399-16.435.029-19.833-7.526z" fill="#97d57e"/><path d="m235.068 408.458-32.304-136.222c-1.912-8.061 3.073-16.145 11.134-18.056l204.333-48.457c8.061-1.912 16.145 3.073 18.056 11.134l32.304 136.222c1.912 8.061-3.073 16.145-11.134 18.056l-204.333 48.457c-8.06 1.911-16.144-3.074-18.056-11.134z" fill="#c0e6b1"/><path d="m104 0c-8.284 0-15 6.716-15 15v396.919c0 12.972-15.931 19.1-24.694 9.536-11.014-12.022-20.844-25.147-29.306-39.19v-292.265h-3c-4.418 0-8-3.582-8-8v-34c0-4.418 3.582-8 8-8h3v-25c0-8.284 6.716-15 15-15z" fill="#453d83"/><path d="m285 90v20h1c4.418 0 8 3.582 8 8v34c0 4.418-3.582 8-8 8h-1v337c-.267.315-.473.557-.74.871-12.783 2.059-25.897 3.129-39.26 3.129-62.103 0-118.81-23.107-161.991-61.192-5.702-5.029-9.009-12.237-9.009-19.84v-404.968c0-8.284 6.716-15 15-15h181c8.284 0 15 6.716 15 15v25h1c4.418 0 8 3.582 8 8v34c0 4.418-3.582 8-8 8z" fill="#5f55af"/><path d="m256 110v315c0 8.284-6.716 15-15 15h-157.773c-6.749-5.938-13.168-12.242-19.227-18.88v-311.12c0-8.284 6.716-15 15-15h162c8.284 0 15 6.716 15 15z" fill="#fff5f5"/><path d="m64 110v-45c0-8.284 6.716-15 15-15h162c8.284 0 15 6.716 15 15v45z" fill="#ffc14f"/><path d="m187.5 32.5h-26c-4.142 0-7.5-3.358-7.5-7.5 0-4.142 3.358-7.5 7.5-7.5h26c4.142 0 7.5 3.358 7.5 7.5 0 4.142-3.358 7.5-7.5 7.5zm-47.5-7.5c0-4.142-3.358-7.5-7.5-7.5-4.142 0-7.5 3.358-7.5 7.5 0 4.142 3.358 7.5 7.5 7.5 4.142 0 7.5-3.358 7.5-7.5zm34 435h-30c-7.261 0-13.317 5.16-14.702 12.012 13.582 7.29 27.931 13.337 42.894 17.988h1.808c8.284 0 15-6.716 15-15 0-8.284-6.716-15-15-15z" fill="#19305c"/><path d="m181 88h-84c-4.418 0-8-3.582-8-8 0-4.418 3.582-8 8-8h84c4.418 0 8 3.582 8 8 0 4.418-3.582 8-8 8z" fill="#f29500"/><path d="m214 230h-110c-8.284 0-15-6.716-15-15v-60c0-8.284 6.716-15 15-15h110c8.284 0 15 6.716 15 15v60c0 8.284-6.716 15-15 15z" fill="#f44545"/><path d="m129 162c0 4.418-3.582 8-8 8h-14c-4.418 0-8-3.582-8-8s3.582-8 8-8h14c4.418 0 8 3.582 8 8zm32-8h-14c-4.418 0-8 3.582-8 8s3.582 8 8 8h14c4.418 0 8-3.582 8-8s-3.582-8-8-8zm50 0h-24c-4.418 0-8 3.582-8 8 0 4.418 3.582 8 8 8h24c4.418 0 8-3.582 8-8 0-4.418-3.582-8-8-8z" fill="#c50048"/><path d="m151 353h-54c-4.418 0-8-3.582-8-8 0-4.418 3.582-8 8-8h54c4.418 0 8 3.582 8 8 0 4.418-3.582 8-8 8zm105-83h-192v50h192zm0 150h-192v-50h192z" fill="#c8e2fd"/><path d="m181 303h-84c-4.418 0-8-3.582-8-8 0-4.418 3.582-8 8-8h84c4.418 0 8 3.582 8 8 0 4.418-3.582 8-8 8zm-2 92c0-4.418-3.582-8-8-8h-74c-4.418 0-8 3.582-8 8 0 4.418 3.582 8 8 8h74c4.418 0 8-3.582 8-8z" fill="#86befb"/><path d="m459 482h-220c-16.569 0-30-13.431-30-30v-154c0-16.569 13.431-30 30-30h220c16.569 0 30 13.431 30 30v154c0 16.569-13.431 30-30 30z" fill="#ffc14f"/><path d="m273.407 482h-34.407c-16.569 0-30-13.432-30-30v-154c0-16.568 13.431-30 30-30h34.407c-16.569 0-30 13.432-30 30v154c0 16.568 13.431 30 30 30z" fill="#ffa90b"/><path d="m501 375c0 16.569-13.431 30-30 30h-102c-16.569 0-30-13.431-30-30 0-16.569 13.431-30 30-30h102c16.569 0 30 13.431 30 30z" fill="#f44545"/><path d="m399 405h-30c-16.569 0-30-13.432-30-30 0-16.568 13.431-30 30-30h30c-16.569 0-30 13.432-30 30 0 16.568 13.431 30 30 30z" fill="#c50048"/><path d="m169 205c0 8.284-6.716 15-15 15s-15-6.716-15-15 6.716-15 15-15 15 6.716 15 15z" fill="#ffe7c0"/><path d="m129 205c0 8.284-6.716 15-15 15s-15-6.716-15-15 6.716-15 15-15 15 6.716 15 15zm360 170c0 8.284-6.716 15-15 15s-15-6.716-15-15 6.716-15 15-15 15 6.716 15 15z" fill="#fff36c"/></g></svg>